HIERARCHY
ROOT root
{
	OFFSET	0	13.1	24.9
	CHANNELS 6  Xposition Yposition Zposition Xrotation Yrotation Zrotation
	JOINT spine_1
	{
		OFFSET	0	9.99999	0
		CHANNELS 3  Xrotation Yrotation Zrotation
		JOINT spine_2
		{
			OFFSET	0	112	-10
			CHANNELS 3  Xrotation Yrotation Zrotation
			JOINT spine_3
			{
				OFFSET	0	206.5	19.3
				CHANNELS 3  Xrotation Yrotation Zrotation
				JOINT spine_4
				{
					OFFSET	0	110.4	14.6
					CHANNELS 3  Xrotation Yrotation Zrotation
					JOINT neck_1
					{
						OFFSET	0	71.8	-50.3
						CHANNELS 3  Xrotation Yrotation Zrotation
						JOINT neck_2
						{
							OFFSET	0	86.2	-25.8
							CHANNELS 3  Xrotation Yrotation Zrotation
							JOINT head_ee
							{
								OFFSET	0	179.8	-8.7
								CHANNELS 3  Xrotation Yrotation Zrotation
								End Site
								{
									OFFSET	1	0	0
								}
							}
						}
					}
					JOINT left_clavicle
					{
						OFFSET	-43.2	22.4	-70.8
						CHANNELS 3  Xrotation Yrotation Zrotation
						JOINT left_shoulder
						{
							OFFSET	-93.9	-5.79999	48.7
							CHANNELS 3  Xrotation Yrotation Zrotation
							JOINT left_elbow
							{
								OFFSET	-291.4	-30.8	15.2
								CHANNELS 3  Xrotation Yrotation Zrotation
								JOINT left_lowarm_twist
								{
									OFFSET	-110.7	-3.89999	13.6
									CHANNELS 3  Xrotation Yrotation Zrotation
									JOINT left_hand
									{
										OFFSET	-110.7	-3.89999	13.6
										CHANNELS 3  Xrotation Yrotation Zrotation
										JOINT left_ee
										{
											OFFSET	-80.8	-5.10001	12.1
											CHANNELS 3  Xrotation Yrotation Zrotation
											End Site
											{
												OFFSET	1	0	0
											}
										}
									}
								}
							}
						}
					}
					JOINT right_clavicle
					{
						OFFSET	43.2	22.4	-70.8
						CHANNELS 3  Xrotation Yrotation Zrotation
						JOINT right_shoulder
						{
							OFFSET	93.9	-5.79999	48.7
							CHANNELS 3  Xrotation Yrotation Zrotation
							JOINT right_elbow
							{
								OFFSET	291.4	-30.8	15.2
								CHANNELS 3  Xrotation Yrotation Zrotation
								JOINT right_lowarm_twist
								{
									OFFSET	110.7	-3.89999	13.6
									CHANNELS 3  Xrotation Yrotation Zrotation
									JOINT right_hand
									{
										OFFSET	110.7	-3.89999	13.6
										CHANNELS 3  Xrotation Yrotation Zrotation
										JOINT right_ee
										{
											OFFSET	80.8	-5.10001	12.1
											CHANNELS 3  Xrotation Yrotation Zrotation
											End Site
											{
												OFFSET	1	0	0
											}
										}
									}
								}
							}
						}
					}
				}
			}
		}
	}
	JOINT left_hip
	{
		OFFSET	-82.8	-127.5	0.300001
		CHANNELS 3  Xrotation Yrotation Zrotation
		JOINT left_knee
		{
			OFFSET	-28.2	-396.7	2.2
			CHANNELS 3  Xrotation Yrotation Zrotation
			JOINT left_ankle
			{
				OFFSET	-11.7	-411.3	35.4
				CHANNELS 3  Xrotation Yrotation Zrotation
				JOINT left_toes
				{
					OFFSET	0	-60	-88.6
					CHANNELS 3  Xrotation Yrotation Zrotation
					JOINT left_foot_ee
					{
						OFFSET	-22.5	-16.5	-42.2
						CHANNELS 3  Xrotation Yrotation Zrotation
						End Site
						{
							OFFSET	1	0	0
						}
					}
				}
			}
		}
	}
	JOINT right_hip
	{
		OFFSET	82.8	-127.5	0.300001
		CHANNELS 3  Xrotation Yrotation Zrotation
		JOINT right_knee
		{
			OFFSET	28.2	-396.7	2.2
			CHANNELS 3  Xrotation Yrotation Zrotation
			JOINT right_ankle
			{
				OFFSET	11.7	-411.3	35.4
				CHANNELS 3  Xrotation Yrotation Zrotation
				JOINT right_toes
				{
					OFFSET	0	-60	-88.6
					CHANNELS 3  Xrotation Yrotation Zrotation
					JOINT right_foot_ee
					{
						OFFSET	22.5	-16.5	-42.2
						CHANNELS 3  Xrotation Yrotation Zrotation
						End Site
						{
							OFFSET	1	0	0
						}
					}
				}
			}
		}
	}
}
MOTION
Frames: 10
Frame Time: 0.02
1372.05 701.618 -1475.22 -17.2268404554 27.20102342 1.62579332882 4.32462 0.471342 2.68428 4.32858 0.299644 2.7088 4.34008 -0.0703432 2.72441 4.3299 0.360649 2.70136 -7.93868 11.9461 -4.45632 -7.92268 25.4305 -1.80032 -0.0 0.0 -0.0 5.86582 6.90403 11.3994 -11.1976 -29.7059 39.7782 1.99103 -44.5998 0.816648 4.08466 0.125902 -0.506437 0.611799 -10.4249 -0.300645 -0.0 0.0 -0.0 8.69963 1.93141 -17.041 -32.8081 10.4189 -65.0341 0.583507 16.1222 -0.082642 20.0373 -0.265556 2.53279 -0.328241 -9.92095 -2.00433 0.0 0.0 0.0 8.67052 -23.2248 18.3511 -13.5441 0.316678 2.04957 39.3546 24.8033 -5.09921 3.03801 -0.0 -0.0 -0.0 0.0 -0.0 45.7595 -16.5728 2.60406 -1.82935 -0.070988 -0.271754 33.437 -9.1868 4.25176 0.400709 -0.0 -0.0 0.0 0.0 0.0 
1360.74162026 697.445 -1491.59050004 -17.3747787681 28.0014597245 2.09723613708 4.36726 0.447875 2.73872 4.37139 0.272764 2.76164 4.38171 -0.102157 2.77319 4.37113 0.336929 2.75455 -5.98865 10.7346 -7.03767 -5.71083 24.9932 -5.14289 -0.0 0.0 -0.0 5.97904 8.12089 11.5949 -12.3018 -29.086 39.9284 2.00452 -44.7931 0.826131 3.52743 0.11086 -0.436846 0.826763 -11.6213 0.635434 -0.0 0.0 -0.0 9.00544 1.63386 -17.6637 -32.3865 11.0626 -64.5759 0.580839 16.0523 -0.0819026 20.6141 -0.260003 2.60626 -0.534741 -8.91675 -0.25451 0.0 0.0 0.0 8.1471 -22.22 17.9913 -15.6699 0.32207 2.37567 39.4427 23.3182 -5.06273 3.54899 -0.0 -0.0 -0.0 0.0 -0.0 45.9099 -16.359 2.42145 -4.28076 -0.15243 -0.639131 34.7513 -8.62326 4.38026 1.37098 -0.0 -0.0 0.0 0.0 0.0 
1345.64474634 697.767 -1514.08247815 -17.7721994797 29.6181411335 2.65215760463 4.40849 0.526027 2.64497 4.41231 0.356716 2.67306 4.42629 -0.00482477 2.69673 4.41639 0.420981 2.6637 -5.59316 10.5269 -7.19701 -5.27886 24.727 -5.44164 -0.0 0.0 -0.0 5.59296 9.25374 10.8908 -13.6268 -28.8959 41.5897 2.10454 -46.1871 0.897465 3.97447 0.122981 -0.492665 1.22685 -13.7923 2.38752 -0.0 0.0 -0.0 9.24004 1.95517 -18.1561 -31.7349 10.6471 -64.3822 0.602764 16.6253 -0.0880707 21.2284 -0.253277 2.68443 -0.583571 -9.47249 -0.1772 0.0 0.0 0.0 7.65541 -21.2311 17.6319 -17.039 0.319138 2.5857 39.2636 24.1708 -5.07075 3.70208 -0.0 -0.0 -0.0 0.0 -0.0 45.5562 -16.2134 3.12791 -6.62855 -0.215617 -0.993872 35.1168 -7.81359 4.41314 2.21976 -0.0 -0.0 0.0 0.0 0.0 
1346.05052134 697.767 -1514.35510877 -17.6702263053 29.05028198 2.4440106444 4.40849 0.526027 2.64497 4.41231 0.356716 2.67306 4.42629 -0.00482477 2.69673 4.41639 0.420981 2.6637 -5.59316 10.5269 -7.19701 -5.27886 24.727 -5.44164 -0.0 0.0 -0.0 5.59296 9.25374 10.8908 -13.6268 -28.8959 41.5897 2.10454 -46.1871 0.897465 3.97447 0.122981 -0.492665 1.22685 -13.7923 2.38752 -0.0 0.0 -0.0 9.24004 1.95517 -18.1561 -31.7349 10.6471 -64.3822 0.602764 16.6253 -0.0880707 21.2284 -0.253277 2.68443 -0.583571 -9.47249 -0.1772 0.0 0.0 0.0 7.65541 -21.2311 17.6319 -17.039 0.319138 2.5857 39.2636 24.1708 -5.07075 3.70208 -0.0 -0.0 -0.0 0.0 -0.0 45.5562 -16.2134 3.12791 -6.62855 -0.215617 -0.993872 35.1168 -7.81359 4.41314 2.21976 -0.0 -0.0 0.0 0.0 0.0 
1309.34985819 707.144 -1561.19688176 -17.1324646829 31.7780356825 3.05562297903 4.3656 0.533278 2.63909 4.3694 0.364327 2.66765 4.38376 0.00145091 2.69239 4.37389 0.426493 2.65842 -4.30057 9.25189 -9.08422 -3.79157 23.8145 -7.9365 -0.0 0.0 -0.0 5.18016 9.23767 10.1579 -19.0999 -26.8604 44.3372 1.94894 -43.9881 0.787253 2.56742 0.083358 -0.317303 1.67495 -14.715 4.99514 -0.0 0.0 -0.0 9.63653 1.92637 -18.9785 -31.059 11.1572 -63.9482 0.637041 17.5143 -0.0981323 22.0178 -0.243402 2.78478 -0.878496 -8.68739 2.06063 0.0 0.0 0.0 7.066 -20.0774 17.2023 -20.4956 0.289418 3.11515 38.4187 25.7606 -5.03775 4.05674 -0.0 -0.0 -0.0 0.0 -0.0 43.6884 -15.0009 5.08596 -13.9488 -0.318637 -2.11163 37.8647 -7.09585 4.67056 3.63695 -0.0 -0.0 0.0 0.0 0.0 
1310.75621767 707.144 -1562.20508049 -16.9661532464 30.8872526217 2.73580716292 4.3656 0.533278 2.63909 4.3694 0.364327 2.66765 4.38376 0.00145091 2.69239 4.37389 0.426493 2.65842 -4.30057 9.25189 -9.08422 -3.79157 23.8145 -7.9365 -0.0 0.0 -0.0 5.18016 9.23767 10.1579 -19.0999 -26.8604 44.3372 1.94894 -43.9881 0.787253 2.56742 0.083358 -0.317303 1.67495 -14.715 4.99514 -0.0 0.0 -0.0 9.63653 1.92637 -18.9785 -31.059 11.1572 -63.9482 0.637041 17.5143 -0.0981323 22.0178 -0.243402 2.78478 -0.878496 -8.68739 2.06063 0.0 0.0 0.0 7.066 -20.0774 17.2023 -20.4956 0.289418 3.11515 38.4187 25.7606 -5.03775 4.05674 -0.0 -0.0 -0.0 0.0 -0.0 43.6884 -15.0009 5.08596 -13.9488 -0.318637 -2.11163 37.8647 -7.09585 4.67056 3.63695 -0.0 -0.0 0.0 0.0 0.0 
1279.02481303 713.678 -1601.3556579 -16.7748496602 33.9015403792 1.8974936547 4.12224 0.744535 3.03217 4.12719 0.550175 3.07335 4.15366 0.118628 3.11991 4.14059 0.609637 3.06212 -3.75721 8.52263 -10.4639 -3.11723 23.5552 -9.6394 -0.0 0.0 -0.0 4.91488 10.2626 9.69419 -22.5714 -24.9797 46.0282 1.87788 -42.9261 0.738375 1.82671 0.0607708 -0.225386 1.92682 -15.8111 6.19714 -0.0 0.0 -0.0 10.2941 1.68821 -20.3449 -29.0845 11.4126 -63.0047 0.650772 17.868 -0.102305 21.8712 -0.24534 2.76615 -1.06639 -9.23433 3.03052 0.0 0.0 0.0 7.89732 -19.3668 17.0096 -21.6639 0.272157 3.29358 41.0585 25.6992 -5.29232 4.80435 -0.0 -0.0 -0.0 0.0 -0.0 42.3309 -14.6927 7.16544 -18.8306 -0.307721 -2.86035 39.3302 -6.88122 4.80179 4.76697 -0.0 -0.0 0.0 0.0 0.0 
1282.83062931 713.678 -1604.07570805 -16.4562517476 32.2627492551 1.31387411656 4.12224 0.744535 3.03217 4.12719 0.550175 3.07335 4.15366 0.118628 3.11991 4.14059 0.609637 3.06212 -3.75721 8.52263 -10.4639 -3.11723 23.5552 -9.6394 -0.0 0.0 -0.0 4.91488 10.2626 9.69419 -22.5714 -24.9797 46.0282 1.87788 -42.9261 0.738375 1.82671 0.0607708 -0.225386 1.92682 -15.8111 6.19714 -0.0 0.0 -0.0 10.2941 1.68821 -20.3449 -29.0845 11.4126 -63.0047 0.650772 17.868 -0.102305 21.8712 -0.24534 2.76615 -1.06639 -9.23433 3.03052 0.0 0.0 0.0 7.89732 -19.3668 17.0096 -21.6639 0.272157 3.29358 41.0585 25.6992 -5.29232 4.80435 -0.0 -0.0 -0.0 0.0 -0.0 42.3309 -14.6927 7.16544 -18.8306 -0.307721 -2.86035 39.3302 -6.88122 4.80179 4.76697 -0.0 -0.0 0.0 0.0 0.0 
1269.91094969 715.21 -1622.21100858 -15.9666111065 32.4676205653 0.944052706134 4.00932 0.647325 3.16605 4.01478 0.444655 3.20077 4.03644 -0.010335 3.23146 4.02221 0.49988 3.19262 -5.65638 8.07374 -11.5407 -5.07901 23.4161 -10.3726 -0.0 0.0 -0.0 4.6877 10.4405 9.29956 -24.2726 -24.1919 47.3676 1.7238 -40.4911 0.635831 1.80386 0.060055 -0.222555 1.8389 -15.4073 5.78821 -0.0 0.0 -0.0 10.0833 2.34711 -19.9276 -26.7205 12.5163 -63.3072 0.679169 18.5951 -0.111189 21.9535 -0.244258 2.77661 -0.99307 -8.98569 2.66836 0.0 0.0 0.0 10.2447 -18.7913 17.3296 -26.1182 0.17307 3.96977 40.6629 25.2962 -5.24105 4.78164 -0.0 -0.0 -0.0 0.0 -0.0 40.9957 -14.4575 8.04445 -20.7254 -0.28631 -3.15027 39.6741 -6.52409 4.83118 5.08105 -0.0 -0.0 0.0 0.0 0.0 
1251.81704436 719.222 -1644.50513048 -15.0527827792 32.9733890189 0.0266617973722 4.04302 0.564613 3.2346 4.04877 0.357755 3.26393 4.06574 -0.103729 3.28182 4.05095 0.415595 3.25708 -6.0461 7.36644 -11.9771 -5.47532 22.403 -10.8553 -0.0 0.0 -0.0 4.64009 11.5521 9.22628 -25.1803 -23.7301 49.3909 1.53457 -37.2388 0.517046 1.51489 0.050907 -0.18678 1.68506 -13.5332 5.58969 -0.0 0.0 -0.0 9.7122 1.74584 -19.1301 -25.4292 13.6095 -63.6718 0.693131 18.9503 -0.115683 22.0051 -0.243572 2.78317 -0.87603 -8.89401 1.95424 0.0 0.0 0.0 11.601 -16.06 17.5763 -32.4349 -0.0568733 4.91144 37.0233 25.5734 -4.89036 3.98937 -0.0 -0.0 -0.0 0.0 -0.0 38.9976 -13.4143 9.12883 -22.7266 -0.253298 -3.45557 40.115 -7.04627 4.87097 5.38173 -0.0 -0.0 0.0 0.0 0.0 
